<mxfile host="Electron" modified="2023-07-31T02:14:27.244Z" agent="Mozilla/5.0 (Windows NT 10.0; Win64; x64) AppleWebKit/537.36 (KHTML, like Gecko) draw.io/21.6.5 Chrome/114.0.5735.243 Electron/25.3.1 Safari/537.36" etag="uzYU5MOIDFUeGX4ORlFh" version="21.6.5" type="device">
  <diagram name="Page-1" id="_LPIkTx2r5iNirPAJMJa">
    <mxGraphModel dx="1418" dy="828" grid="1" gridSize="10" guides="1" tooltips="1" connect="1" arrows="1" fold="1" page="1" pageScale="1" pageWidth="850" pageHeight="1100" math="0" shadow="0">
      <root>
        <mxCell id="0" />
        <mxCell id="1" parent="0" />
        <mxCell id="x0frURqFESxRiIIQJrU--1" value="" style="ellipse;html=1;shape=startState;fillColor=#000000;strokeColor=#ff0000;" parent="1" vertex="1">
          <mxGeometry x="410" width="30" height="30" as="geometry" />
        </mxCell>
        <mxCell id="x0frURqFESxRiIIQJrU--2" value="" style="edgeStyle=orthogonalEdgeStyle;html=1;verticalAlign=bottom;endArrow=open;endSize=8;strokeColor=#ff0000;rounded=0;" parent="1" source="x0frURqFESxRiIIQJrU--1" edge="1">
          <mxGeometry relative="1" as="geometry">
            <mxPoint x="425" y="80" as="targetPoint" />
          </mxGeometry>
        </mxCell>
        <mxCell id="x0frURqFESxRiIIQJrU--3" value="Active Fire Alarm" style="rounded=1;whiteSpace=wrap;html=1;arcSize=40;fontColor=#000000;fillColor=#ffffc0;strokeColor=#ff0000;" parent="1" vertex="1">
          <mxGeometry x="365" y="80" width="120" height="40" as="geometry" />
        </mxCell>
        <mxCell id="x0frURqFESxRiIIQJrU--4" value="" style="edgeStyle=orthogonalEdgeStyle;html=1;verticalAlign=bottom;endArrow=open;endSize=8;strokeColor=#ff0000;rounded=0;" parent="1" source="x0frURqFESxRiIIQJrU--3" edge="1">
          <mxGeometry relative="1" as="geometry">
            <mxPoint x="425" y="160" as="targetPoint" />
          </mxGeometry>
        </mxCell>
        <mxCell id="x0frURqFESxRiIIQJrU--5" value="Situation Context" style="rounded=1;whiteSpace=wrap;html=1;arcSize=40;fontColor=#000000;fillColor=#ffffc0;strokeColor=#ff0000;" parent="1" vertex="1">
          <mxGeometry x="5" y="20" width="120" height="40" as="geometry" />
        </mxCell>
        <mxCell id="x0frURqFESxRiIIQJrU--8" value="" style="edgeStyle=orthogonalEdgeStyle;html=1;verticalAlign=bottom;endArrow=open;endSize=8;strokeColor=#ff0000;rounded=0;" parent="1" edge="1">
          <mxGeometry relative="1" as="geometry">
            <mxPoint x="64.5" y="240" as="targetPoint" />
            <mxPoint x="65" y="180" as="sourcePoint" />
          </mxGeometry>
        </mxCell>
        <mxCell id="x0frURqFESxRiIIQJrU--9" value="Flow" style="edgeLabel;html=1;align=center;verticalAlign=middle;resizable=0;points=[];" parent="x0frURqFESxRiIIQJrU--8" vertex="1" connectable="0">
          <mxGeometry x="-0.3333" y="3" relative="1" as="geometry">
            <mxPoint x="-2" y="10" as="offset" />
          </mxGeometry>
        </mxCell>
        <mxCell id="x0frURqFESxRiIIQJrU--10" value="Start Point" style="ellipse;html=1;shape=startState;fillColor=#000000;strokeColor=#ff0000;" parent="1" vertex="1">
          <mxGeometry x="50" y="250" width="30" height="30" as="geometry" />
        </mxCell>
        <mxCell id="x0frURqFESxRiIIQJrU--11" value="End Point" style="ellipse;html=1;shape=endState;fillColor=#000000;strokeColor=#ff0000;" parent="1" vertex="1">
          <mxGeometry x="50" y="290" width="30" height="30" as="geometry" />
        </mxCell>
        <mxCell id="x0frURqFESxRiIIQJrU--26" value="STEPS" style="shape=umlFrame;whiteSpace=wrap;html=1;pointerEvents=0;" parent="1" vertex="1">
          <mxGeometry y="70" width="130" height="90" as="geometry" />
        </mxCell>
        <mxCell id="x0frURqFESxRiIIQJrU--27" value="STEP 1" style="shape=umlFrame;whiteSpace=wrap;html=1;pointerEvents=0;" parent="1" vertex="1">
          <mxGeometry x="305" y="160" width="240" height="60" as="geometry" />
        </mxCell>
        <mxCell id="x0frURqFESxRiIIQJrU--28" value="HEAD TO CACF ROOM/ CACF PANEL" style="text;html=1;align=center;verticalAlign=middle;resizable=0;points=[];autosize=1;strokeColor=none;fillColor=none;" parent="1" vertex="1">
          <mxGeometry x="305" y="190" width="240" height="30" as="geometry" />
        </mxCell>
        <mxCell id="x0frURqFESxRiIIQJrU--29" value="STEP 2" style="shape=umlFrame;whiteSpace=wrap;html=1;pointerEvents=0;" parent="1" vertex="1">
          <mxGeometry x="270" y="270" width="310" height="70" as="geometry" />
        </mxCell>
        <mxCell id="x0frURqFESxRiIIQJrU--30" value="ACKNOWLEDGE THE FIRE ALARM BY PRESSING&lt;br&gt;&#39;FIRE ALARM ACK&#39;" style="text;html=1;align=center;verticalAlign=middle;resizable=0;points=[];autosize=1;strokeColor=none;fillColor=none;" parent="1" vertex="1">
          <mxGeometry x="270" y="300" width="310" height="40" as="geometry" />
        </mxCell>
        <mxCell id="x0frURqFESxRiIIQJrU--32" value="" style="edgeStyle=orthogonalEdgeStyle;html=1;verticalAlign=bottom;endArrow=open;endSize=8;strokeColor=#ff0000;rounded=0;" parent="1" edge="1">
          <mxGeometry relative="1" as="geometry">
            <mxPoint x="425" y="270" as="targetPoint" />
            <mxPoint x="425" y="220" as="sourcePoint" />
          </mxGeometry>
        </mxCell>
        <mxCell id="x0frURqFESxRiIIQJrU--33" value="STEP 3" style="shape=umlFrame;whiteSpace=wrap;html=1;pointerEvents=0;" parent="1" vertex="1">
          <mxGeometry x="245" y="380" width="360" height="70" as="geometry" />
        </mxCell>
        <mxCell id="x0frURqFESxRiIIQJrU--34" value="CALL 911, INFORM THAT YOU ARE BUILDING SECURITY.&amp;nbsp;&lt;br&gt;ANSWER OPERATOR QUESTIONS CALMLY AND CLEARLY" style="text;html=1;align=center;verticalAlign=middle;resizable=0;points=[];autosize=1;strokeColor=none;fillColor=none;" parent="1" vertex="1">
          <mxGeometry x="245" y="410" width="360" height="40" as="geometry" />
        </mxCell>
        <mxCell id="x0frURqFESxRiIIQJrU--35" value="" style="edgeStyle=orthogonalEdgeStyle;html=1;verticalAlign=bottom;endArrow=open;endSize=8;strokeColor=#ff0000;rounded=0;" parent="1" edge="1">
          <mxGeometry relative="1" as="geometry">
            <mxPoint x="425" y="380" as="targetPoint" />
            <mxPoint x="425" y="340" as="sourcePoint" />
          </mxGeometry>
        </mxCell>
        <mxCell id="x0frURqFESxRiIIQJrU--36" value="STEP 4" style="shape=umlFrame;whiteSpace=wrap;html=1;pointerEvents=0;" parent="1" vertex="1">
          <mxGeometry x="245" y="490" width="360" height="70" as="geometry" />
        </mxCell>
        <mxCell id="x0frURqFESxRiIIQJrU--37" value="MAKE THE FIRST ANNOUNCEMENT&lt;br&gt;ABOUT FIRE DEPARTMENT BEING NOTIFIED&amp;nbsp;&lt;br&gt;AND ON THE WAY" style="text;html=1;align=center;verticalAlign=middle;resizable=0;points=[];autosize=1;strokeColor=none;fillColor=none;" parent="1" vertex="1">
          <mxGeometry x="285" y="500" width="280" height="60" as="geometry" />
        </mxCell>
        <mxCell id="x0frURqFESxRiIIQJrU--38" value="STEP 5" style="shape=umlFrame;whiteSpace=wrap;html=1;pointerEvents=0;" parent="1" vertex="1">
          <mxGeometry x="245" y="600" width="360" height="70" as="geometry" />
        </mxCell>
        <mxCell id="x0frURqFESxRiIIQJrU--41" value="ENSURE ALL ELEVATORS ARE RECALLED / IF NOT&lt;br&gt;THEN MANUALLY RECALL" style="text;html=1;align=center;verticalAlign=middle;resizable=0;points=[];autosize=1;strokeColor=none;fillColor=none;" parent="1" vertex="1">
          <mxGeometry x="265" y="630" width="320" height="40" as="geometry" />
        </mxCell>
        <mxCell id="x0frURqFESxRiIIQJrU--43" value="UNLOCK FIRE SAFTELY PLAN BOX | KEEP CONTENTS OF&amp;nbsp;&lt;br&gt;THE BOX READY FOR FIRE PERSONNEL&amp;nbsp;" style="text;html=1;align=center;verticalAlign=middle;resizable=0;points=[];autosize=1;strokeColor=none;fillColor=none;" parent="1" vertex="1">
          <mxGeometry x="245" y="750" width="360" height="40" as="geometry" />
        </mxCell>
        <mxCell id="x0frURqFESxRiIIQJrU--44" value="STEP 7" style="shape=umlFrame;whiteSpace=wrap;html=1;pointerEvents=0;" parent="1" vertex="1">
          <mxGeometry x="245" y="830" width="360" height="70" as="geometry" />
        </mxCell>
        <mxCell id="x0frURqFESxRiIIQJrU--45" value="ON FIRE DEPT. ARRIVAL, MAKE SECOND ANNOUNCEMENT" style="text;html=1;align=center;verticalAlign=middle;resizable=0;points=[];autosize=1;strokeColor=none;fillColor=none;" parent="1" vertex="1">
          <mxGeometry x="240" y="860" width="370" height="30" as="geometry" />
        </mxCell>
        <mxCell id="x0frURqFESxRiIIQJrU--46" value="STEP 8" style="shape=umlFrame;whiteSpace=wrap;html=1;pointerEvents=0;" parent="1" vertex="1">
          <mxGeometry x="215" y="940" width="410" height="70" as="geometry" />
        </mxCell>
        <mxCell id="x0frURqFESxRiIIQJrU--47" value="STANDBY FOR DIRECTIONS FROM THE FIRE CAPTAIN, &lt;br&gt;ASSIST AS REQUIRED. DO NOT INTERFERE OR GIVE OPINIONS&lt;br&gt;ON THE SITUATION." style="text;html=1;align=center;verticalAlign=middle;resizable=0;points=[];autosize=1;strokeColor=none;fillColor=none;" parent="1" vertex="1">
          <mxGeometry x="245" y="950" width="390" height="60" as="geometry" />
        </mxCell>
        <mxCell id="x0frURqFESxRiIIQJrU--48" value="STEP 9" style="shape=umlFrame;whiteSpace=wrap;html=1;pointerEvents=0;" parent="1" vertex="1">
          <mxGeometry x="240" y="1050" width="370" height="70" as="geometry" />
        </mxCell>
        <mxCell id="x0frURqFESxRiIIQJrU--49" value="UPON CONFIRMATION FROM FIRE CAPTAIN, MAKE THE THIRD&lt;br&gt;ANNPUNCMEMT OF EITHER ALL CLEAR OR EVACUATION&amp;nbsp;" style="text;html=1;align=center;verticalAlign=middle;resizable=0;points=[];autosize=1;strokeColor=none;fillColor=none;" parent="1" vertex="1">
          <mxGeometry x="230" y="1080" width="390" height="40" as="geometry" />
        </mxCell>
        <mxCell id="x0frURqFESxRiIIQJrU--52" value="STEP 10A" style="shape=umlFrame;whiteSpace=wrap;html=1;pointerEvents=0;" parent="1" vertex="1">
          <mxGeometry x="20" y="1248" width="370" height="70" as="geometry" />
        </mxCell>
        <mxCell id="x0frURqFESxRiIIQJrU--53" value="IF ALL CLEAR, RESET ELEVATORS AND MAGLOCKS" style="text;html=1;align=center;verticalAlign=middle;resizable=0;points=[];autosize=1;strokeColor=none;fillColor=none;" parent="1" vertex="1">
          <mxGeometry x="45" y="1283" width="320" height="30" as="geometry" />
        </mxCell>
        <mxCell id="x0frURqFESxRiIIQJrU--54" value="STEP 13E" style="shape=umlFrame;whiteSpace=wrap;html=1;pointerEvents=0;" parent="1" vertex="1">
          <mxGeometry x="470" y="1600" width="370" height="70" as="geometry" />
        </mxCell>
        <mxCell id="x0frURqFESxRiIIQJrU--55" value="AFTER EVACUATION&lt;br&gt;CALL AND INFORM PROPERTY MANAGER OF THE INCIDENT" style="text;html=1;align=center;verticalAlign=middle;resizable=0;points=[];autosize=1;strokeColor=none;fillColor=none;" parent="1" vertex="1">
          <mxGeometry x="470" y="1615" width="370" height="40" as="geometry" />
        </mxCell>
        <mxCell id="x0frURqFESxRiIIQJrU--56" value="STEP 12A" style="shape=umlFrame;whiteSpace=wrap;html=1;pointerEvents=0;" parent="1" vertex="1">
          <mxGeometry x="20" y="1470" width="370" height="70" as="geometry" />
        </mxCell>
        <mxCell id="x0frURqFESxRiIIQJrU--57" value="MAKE AN INCIDENET REPORT WITH PROPER TIME STAMPS&lt;br&gt;OF EACH STEP" style="text;html=1;align=center;verticalAlign=middle;resizable=0;points=[];autosize=1;strokeColor=none;fillColor=none;" parent="1" vertex="1">
          <mxGeometry x="20" y="1500" width="370" height="40" as="geometry" />
        </mxCell>
        <mxCell id="x0frURqFESxRiIIQJrU--59" value="" style="edgeStyle=orthogonalEdgeStyle;html=1;verticalAlign=bottom;endArrow=open;endSize=8;strokeColor=#ff0000;rounded=0;" parent="1" edge="1">
          <mxGeometry relative="1" as="geometry">
            <mxPoint x="204.5" y="1363" as="targetPoint" />
            <mxPoint x="204.5" y="1318" as="sourcePoint" />
          </mxGeometry>
        </mxCell>
        <mxCell id="x0frURqFESxRiIIQJrU--60" value="" style="edgeStyle=orthogonalEdgeStyle;html=1;verticalAlign=bottom;endArrow=open;endSize=8;strokeColor=#ff0000;rounded=0;" parent="1" edge="1">
          <mxGeometry relative="1" as="geometry">
            <mxPoint x="425" y="1160" as="targetPoint" />
            <mxPoint x="425" y="1120" as="sourcePoint" />
          </mxGeometry>
        </mxCell>
        <mxCell id="x0frURqFESxRiIIQJrU--61" value="" style="edgeStyle=orthogonalEdgeStyle;html=1;verticalAlign=bottom;endArrow=open;endSize=8;strokeColor=#ff0000;rounded=0;" parent="1" edge="1">
          <mxGeometry relative="1" as="geometry">
            <mxPoint x="425" y="1050" as="targetPoint" />
            <mxPoint x="425" y="1010" as="sourcePoint" />
          </mxGeometry>
        </mxCell>
        <mxCell id="x0frURqFESxRiIIQJrU--62" value="" style="edgeStyle=orthogonalEdgeStyle;html=1;verticalAlign=bottom;endArrow=open;endSize=8;strokeColor=#ff0000;rounded=0;" parent="1" edge="1">
          <mxGeometry relative="1" as="geometry">
            <mxPoint x="425" y="940" as="targetPoint" />
            <mxPoint x="425" y="900" as="sourcePoint" />
          </mxGeometry>
        </mxCell>
        <mxCell id="x0frURqFESxRiIIQJrU--63" value="" style="edgeStyle=orthogonalEdgeStyle;html=1;verticalAlign=bottom;endArrow=open;endSize=8;strokeColor=#ff0000;rounded=0;" parent="1" edge="1">
          <mxGeometry relative="1" as="geometry">
            <mxPoint x="424" y="830" as="targetPoint" />
            <mxPoint x="424" y="790" as="sourcePoint" />
          </mxGeometry>
        </mxCell>
        <mxCell id="x0frURqFESxRiIIQJrU--64" value="" style="edgeStyle=orthogonalEdgeStyle;html=1;verticalAlign=bottom;endArrow=open;endSize=8;strokeColor=#ff0000;rounded=0;" parent="1" source="x0frURqFESxRiIIQJrU--42" edge="1">
          <mxGeometry relative="1" as="geometry">
            <mxPoint x="425" y="720" as="targetPoint" />
            <mxPoint x="425" y="670" as="sourcePoint" />
          </mxGeometry>
        </mxCell>
        <mxCell id="x0frURqFESxRiIIQJrU--65" value="" style="edgeStyle=orthogonalEdgeStyle;html=1;verticalAlign=bottom;endArrow=open;endSize=8;strokeColor=#ff0000;rounded=0;" parent="1" edge="1">
          <mxGeometry relative="1" as="geometry">
            <mxPoint x="425" y="600" as="targetPoint" />
            <mxPoint x="425" y="560" as="sourcePoint" />
          </mxGeometry>
        </mxCell>
        <mxCell id="x0frURqFESxRiIIQJrU--66" value="" style="edgeStyle=orthogonalEdgeStyle;html=1;verticalAlign=bottom;endArrow=open;endSize=8;strokeColor=#ff0000;rounded=0;entryX=0.25;entryY=0.5;entryDx=0;entryDy=0;entryPerimeter=0;" parent="1" target="x0frURqFESxRiIIQJrU--100" edge="1">
          <mxGeometry relative="1" as="geometry">
            <mxPoint x="204.5" y="1600" as="targetPoint" />
            <mxPoint x="204.5" y="1540" as="sourcePoint" />
            <Array as="points">
              <mxPoint x="205" y="1541" />
              <mxPoint x="200" y="1541" />
              <mxPoint x="200" y="1770" />
              <mxPoint x="375" y="1770" />
            </Array>
          </mxGeometry>
        </mxCell>
        <mxCell id="x0frURqFESxRiIIQJrU--67" value="" style="edgeStyle=orthogonalEdgeStyle;html=1;verticalAlign=bottom;endArrow=open;endSize=8;strokeColor=#ff0000;rounded=0;" parent="1" edge="1">
          <mxGeometry relative="1" as="geometry">
            <mxPoint x="205" y="1470" as="targetPoint" />
            <mxPoint x="204.5" y="1430" as="sourcePoint" />
          </mxGeometry>
        </mxCell>
        <mxCell id="x0frURqFESxRiIIQJrU--69" value="" style="edgeStyle=orthogonalEdgeStyle;html=1;verticalAlign=bottom;endArrow=open;endSize=8;strokeColor=#ff0000;rounded=0;" parent="1" edge="1">
          <mxGeometry relative="1" as="geometry">
            <mxPoint x="424" y="490" as="targetPoint" />
            <mxPoint x="424" y="450" as="sourcePoint" />
          </mxGeometry>
        </mxCell>
        <mxCell id="x0frURqFESxRiIIQJrU--70" value="" style="edgeStyle=orthogonalEdgeStyle;html=1;verticalAlign=bottom;endArrow=open;endSize=8;strokeColor=#ff0000;rounded=0;" parent="1" target="x0frURqFESxRiIIQJrU--42" edge="1">
          <mxGeometry relative="1" as="geometry">
            <mxPoint x="425" y="720" as="targetPoint" />
            <mxPoint x="425" y="670" as="sourcePoint" />
          </mxGeometry>
        </mxCell>
        <mxCell id="x0frURqFESxRiIIQJrU--42" value="STEP 6" style="shape=umlFrame;whiteSpace=wrap;html=1;pointerEvents=0;" parent="1" vertex="1">
          <mxGeometry x="245" y="720" width="360" height="70" as="geometry" />
        </mxCell>
        <mxCell id="x0frURqFESxRiIIQJrU--76" value="Condition" style="rhombus;whiteSpace=wrap;html=1;fontColor=#000000;fillColor=#ffffc0;strokeColor=#ff0000;" parent="1" vertex="1">
          <mxGeometry x="30" y="330" width="80" height="40" as="geometry" />
        </mxCell>
        <mxCell id="x0frURqFESxRiIIQJrU--77" value="no" style="edgeStyle=orthogonalEdgeStyle;html=1;align=left;verticalAlign=bottom;endArrow=open;endSize=8;strokeColor=#ff0000;rounded=0;" parent="1" source="x0frURqFESxRiIIQJrU--76" edge="1">
          <mxGeometry x="-1" relative="1" as="geometry">
            <mxPoint x="210" y="350" as="targetPoint" />
          </mxGeometry>
        </mxCell>
        <mxCell id="x0frURqFESxRiIIQJrU--78" value="" style="edgeStyle=orthogonalEdgeStyle;html=1;align=left;verticalAlign=top;endArrow=open;endSize=8;strokeColor=#ff0000;rounded=0;" parent="1" edge="1">
          <mxGeometry x="0.2" y="60" relative="1" as="geometry">
            <mxPoint x="71" y="430" as="targetPoint" />
            <mxPoint x="71" y="370" as="sourcePoint" />
            <Array as="points">
              <mxPoint x="71" y="370" />
              <mxPoint x="71" y="370" />
            </Array>
            <mxPoint as="offset" />
          </mxGeometry>
        </mxCell>
        <mxCell id="x0frURqFESxRiIIQJrU--80" value="yes" style="text;html=1;align=center;verticalAlign=middle;resizable=0;points=[];autosize=1;strokeColor=none;fillColor=none;" parent="1" vertex="1">
          <mxGeometry x="70" y="370" width="40" height="30" as="geometry" />
        </mxCell>
        <mxCell id="x0frURqFESxRiIIQJrU--81" value="Condition" style="rhombus;whiteSpace=wrap;html=1;fontColor=#000000;fillColor=#ffffc0;strokeColor=#ff0000;" parent="1" vertex="1">
          <mxGeometry x="385" y="1160" width="80" height="40" as="geometry" />
        </mxCell>
        <mxCell id="x0frURqFESxRiIIQJrU--82" value="EVACUATE" style="edgeStyle=orthogonalEdgeStyle;html=1;align=left;verticalAlign=bottom;endArrow=open;endSize=8;strokeColor=#ff0000;rounded=0;entryX=0.595;entryY=0;entryDx=0;entryDy=0;entryPerimeter=0;" parent="1" source="x0frURqFESxRiIIQJrU--81" target="x0frURqFESxRiIIQJrU--84" edge="1">
          <mxGeometry x="-0.4703" relative="1" as="geometry">
            <mxPoint x="710" y="1240" as="targetPoint" />
            <Array as="points">
              <mxPoint x="685" y="1180" />
            </Array>
            <mxPoint as="offset" />
          </mxGeometry>
        </mxCell>
        <mxCell id="x0frURqFESxRiIIQJrU--83" value="ALL CLEAR" style="edgeStyle=orthogonalEdgeStyle;html=1;align=left;verticalAlign=top;endArrow=open;endSize=8;strokeColor=#ff0000;rounded=0;exitX=0;exitY=0.5;exitDx=0;exitDy=0;entryX=0.432;entryY=-0.029;entryDx=0;entryDy=0;entryPerimeter=0;" parent="1" source="x0frURqFESxRiIIQJrU--81" target="x0frURqFESxRiIIQJrU--52" edge="1">
          <mxGeometry x="-0.0492" y="-20" relative="1" as="geometry">
            <mxPoint x="170" y="1240" as="targetPoint" />
            <Array as="points">
              <mxPoint x="180" y="1180" />
            </Array>
            <mxPoint as="offset" />
          </mxGeometry>
        </mxCell>
        <mxCell id="x0frURqFESxRiIIQJrU--84" value="STEP 10E" style="shape=umlFrame;whiteSpace=wrap;html=1;pointerEvents=0;" parent="1" vertex="1">
          <mxGeometry x="465" y="1248" width="370" height="70" as="geometry" />
        </mxCell>
        <mxCell id="x0frURqFESxRiIIQJrU--86" value="STEP 11E" style="shape=umlFrame;whiteSpace=wrap;html=1;pointerEvents=0;" parent="1" vertex="1">
          <mxGeometry x="465" y="1360" width="370" height="70" as="geometry" />
        </mxCell>
        <mxCell id="x0frURqFESxRiIIQJrU--87" value="DIRECT RESIDENTS/STAFF/CUSTOMERS TO STAY CALM AND&lt;br&gt;NOT TO RUN&amp;nbsp;" style="text;html=1;align=center;verticalAlign=middle;resizable=0;points=[];autosize=1;strokeColor=none;fillColor=none;" parent="1" vertex="1">
          <mxGeometry x="465" y="1385" width="380" height="40" as="geometry" />
        </mxCell>
        <mxCell id="x0frURqFESxRiIIQJrU--88" value="STEP 14E" style="shape=umlFrame;whiteSpace=wrap;html=1;pointerEvents=0;" parent="1" vertex="1">
          <mxGeometry x="470" y="1725" width="370" height="70" as="geometry" />
        </mxCell>
        <mxCell id="x0frURqFESxRiIIQJrU--89" value="WHEN POSSIBLE, MAKE AN INCIDENET REPORT WITH&lt;br&gt;PROPER TIME STAMPS OF EACH STEP" style="text;html=1;align=center;verticalAlign=middle;resizable=0;points=[];autosize=1;strokeColor=none;fillColor=none;" parent="1" vertex="1">
          <mxGeometry x="485" y="1755" width="340" height="40" as="geometry" />
        </mxCell>
        <mxCell id="x0frURqFESxRiIIQJrU--90" value="" style="edgeStyle=orthogonalEdgeStyle;html=1;verticalAlign=bottom;endArrow=open;endSize=8;strokeColor=#ff0000;rounded=0;" parent="1" edge="1">
          <mxGeometry relative="1" as="geometry">
            <mxPoint x="654.5" y="1363" as="targetPoint" />
            <mxPoint x="654.5" y="1318" as="sourcePoint" />
          </mxGeometry>
        </mxCell>
        <mxCell id="x0frURqFESxRiIIQJrU--91" value="" style="edgeStyle=orthogonalEdgeStyle;html=1;verticalAlign=bottom;endArrow=open;endSize=8;strokeColor=#ff0000;rounded=0;" parent="1" edge="1">
          <mxGeometry relative="1" as="geometry">
            <mxPoint x="655" y="1480" as="targetPoint" />
            <mxPoint x="654.5" y="1425" as="sourcePoint" />
          </mxGeometry>
        </mxCell>
        <mxCell id="x0frURqFESxRiIIQJrU--92" value="MAKE SURE ALL EXITS ARE ACCESSIBLE&amp;nbsp;" style="text;html=1;align=center;verticalAlign=middle;resizable=0;points=[];autosize=1;strokeColor=none;fillColor=none;" parent="1" vertex="1">
          <mxGeometry x="520" y="1268" width="270" height="30" as="geometry" />
        </mxCell>
        <mxCell id="x0frURqFESxRiIIQJrU--94" value="STEP 12E" style="shape=umlFrame;whiteSpace=wrap;html=1;pointerEvents=0;" parent="1" vertex="1">
          <mxGeometry x="470" y="1480" width="370" height="70" as="geometry" />
        </mxCell>
        <mxCell id="x0frURqFESxRiIIQJrU--95" value="IF U SEE ANY SPECIAL ABLED PERSON, ASSIST THEM" style="text;html=1;align=center;verticalAlign=middle;resizable=0;points=[];autosize=1;strokeColor=none;fillColor=none;" parent="1" vertex="1">
          <mxGeometry x="485" y="1515" width="340" height="30" as="geometry" />
        </mxCell>
        <mxCell id="x0frURqFESxRiIIQJrU--96" value="STEP 11A" style="shape=umlFrame;whiteSpace=wrap;html=1;pointerEvents=0;" parent="1" vertex="1">
          <mxGeometry x="20" y="1360" width="370" height="70" as="geometry" />
        </mxCell>
        <mxCell id="x0frURqFESxRiIIQJrU--97" value="CALL AND INFORM PROPERTY MANAGER OF THE INCIDENT" style="text;html=1;align=center;verticalAlign=middle;resizable=0;points=[];autosize=1;strokeColor=none;fillColor=none;" parent="1" vertex="1">
          <mxGeometry x="20" y="1400" width="370" height="30" as="geometry" />
        </mxCell>
        <mxCell id="x0frURqFESxRiIIQJrU--98" value="" style="edgeStyle=orthogonalEdgeStyle;html=1;verticalAlign=bottom;endArrow=open;endSize=8;strokeColor=#ff0000;rounded=0;" parent="1" edge="1">
          <mxGeometry relative="1" as="geometry">
            <mxPoint x="655" y="1600" as="targetPoint" />
            <mxPoint x="654.5" y="1550" as="sourcePoint" />
          </mxGeometry>
        </mxCell>
        <mxCell id="x0frURqFESxRiIIQJrU--99" value="" style="edgeStyle=orthogonalEdgeStyle;html=1;verticalAlign=bottom;endArrow=open;endSize=8;strokeColor=#ff0000;rounded=0;" parent="1" edge="1">
          <mxGeometry relative="1" as="geometry">
            <mxPoint x="655" y="1725" as="targetPoint" />
            <mxPoint x="654.5" y="1670" as="sourcePoint" />
          </mxGeometry>
        </mxCell>
        <mxCell id="x0frURqFESxRiIIQJrU--100" value="" style="shape=line;html=1;strokeWidth=6;strokeColor=#ff0000;" parent="1" vertex="1">
          <mxGeometry x="325" y="1850" width="200" height="10" as="geometry" />
        </mxCell>
        <mxCell id="x0frURqFESxRiIIQJrU--101" value="" style="edgeStyle=orthogonalEdgeStyle;html=1;verticalAlign=bottom;endArrow=open;endSize=8;strokeColor=#ff0000;rounded=0;" parent="1" source="x0frURqFESxRiIIQJrU--100" target="x0frURqFESxRiIIQJrU--103" edge="1">
          <mxGeometry relative="1" as="geometry">
            <mxPoint x="425" y="1930" as="targetPoint" />
          </mxGeometry>
        </mxCell>
        <mxCell id="x0frURqFESxRiIIQJrU--102" value="" style="edgeStyle=orthogonalEdgeStyle;html=1;verticalAlign=bottom;endArrow=open;endSize=8;strokeColor=#ff0000;rounded=0;entryX=0.75;entryY=0.5;entryDx=0;entryDy=0;entryPerimeter=0;" parent="1" target="x0frURqFESxRiIIQJrU--100" edge="1">
          <mxGeometry relative="1" as="geometry">
            <mxPoint x="650" y="1850" as="targetPoint" />
            <mxPoint x="649.5" y="1795" as="sourcePoint" />
            <Array as="points">
              <mxPoint x="650" y="1820" />
              <mxPoint x="475" y="1820" />
            </Array>
          </mxGeometry>
        </mxCell>
        <mxCell id="x0frURqFESxRiIIQJrU--103" value="" style="ellipse;html=1;shape=endState;fillColor=#000000;strokeColor=#ff0000;" parent="1" vertex="1">
          <mxGeometry x="410" y="1915" width="30" height="30" as="geometry" />
        </mxCell>
        <mxCell id="x0frURqFESxRiIIQJrU--104" value="DISCLAIMER" style="swimlane;fontStyle=0;childLayout=stackLayout;horizontal=1;startSize=26;fillColor=#e51400;horizontalStack=0;resizeParent=1;resizeParentMax=0;resizeLast=0;collapsible=1;marginBottom=0;whiteSpace=wrap;html=1;fontColor=#ffffff;strokeColor=#B20000;" parent="1" vertex="1">
          <mxGeometry x="600" y="16" width="190" height="170" as="geometry" />
        </mxCell>
        <mxCell id="x0frURqFESxRiIIQJrU--105" value="THIS MODULE IS DESIGNED TO TEST AND REFINE YOUR DECISION MAKING. &lt;br&gt;&lt;br&gt;THE MODULE USES GENERAL PROCEDURES, REFER TO YOUR RESPECTIVE BUILDING PROTOCOLS AND ADHERE TO THEM DURING DUTY" style="text;strokeColor=#B20000;fillColor=#e51400;align=center;verticalAlign=top;spacingLeft=4;spacingRight=4;overflow=hidden;rotatable=0;points=[[0,0.5],[1,0.5]];portConstraint=eastwest;whiteSpace=wrap;html=1;fontColor=#ffffff;" parent="x0frURqFESxRiIIQJrU--104" vertex="1">
          <mxGeometry y="26" width="190" height="144" as="geometry" />
        </mxCell>
        <mxCell id="x0frURqFESxRiIIQJrU--108" value="" style="shape=line;html=1;strokeWidth=6;strokeColor=#ff0000;" parent="1" vertex="1">
          <mxGeometry x="8" y="450" width="122" height="10" as="geometry" />
        </mxCell>
        <mxCell id="x0frURqFESxRiIIQJrU--109" value="" style="edgeStyle=orthogonalEdgeStyle;html=1;verticalAlign=bottom;endArrow=open;endSize=8;strokeColor=#ff0000;rounded=0;" parent="1" source="x0frURqFESxRiIIQJrU--108" edge="1">
          <mxGeometry relative="1" as="geometry">
            <mxPoint x="70" y="520" as="targetPoint" />
            <Array as="points">
              <mxPoint x="69" y="510" />
              <mxPoint x="70" y="510" />
            </Array>
          </mxGeometry>
        </mxCell>
        <mxCell id="x0frURqFESxRiIIQJrU--110" value="Fork" style="text;html=1;align=center;verticalAlign=middle;resizable=0;points=[];autosize=1;strokeColor=none;fillColor=none;" parent="1" vertex="1">
          <mxGeometry x="45" y="430" width="50" height="30" as="geometry" />
        </mxCell>
      </root>
    </mxGraphModel>
  </diagram>
</mxfile>
